:SAMPLES-PER-SECOND 30
:FULLY-SPECIFIED
:DEGREES
743
root  -76.4875 39.752 -36.4075 2.69531 66.2355 6.6499
RightUpLeg  -15.3748 -6.48665 -2.45124
RightLeg  24.0742 -3.25074 -1.81205
RightFoot  -13.4742 -0.0366793 3.03407
RightToes  -8.14909e-010 0 -3.6325e-017
Spine  8.12609 -1.13963 -5.43947
Spine1  5.18467 -2.06387 1.39182
HEad  -5.79605 -34.0841 -6.65387
LeftShoulder1  -0.969015 5.99302 -32.7612
LeftArm  -10.6628 2.88292 -41.6795
LeftForeArm  40.8816 0.151228 -4.70024
LeftHand  -0.0408165 5.92762 -2.16198
RightShoulder  -0.563972 -5.18268 26.8202
RightArm  22.1044 -7.19729 47.4037
RightForeArm  12.2498 25.0488 4.72165
RightHand  -0.063763 3.64627 -1.07304
LeftUpLeg  5.56424 6.94839 -4.84597
LeftLeg  13.3836 13.0693 1.49468
LeftFoot  -15.6616 0.241164 3.89466
LeftToes  1.648e-009 -9.21574e-011 2.55256e-011
744
root  -75.706 39.7187 -36.5187 1.96765 67.9113 5.97485
RightUpLeg  -16.5311 -10.1069 0.63751
RightLeg  19.6091 -2.21289 -1.11594
RightFoot  -12.2344 -0.0475242 4.34663
RightToes  -8.14909e-010 0 -3.6325e-017
Spine  9.23064 -1.23108 -6.11752
Spine1  4.08764 -2.52784 3.09992
HEad  -5.60526 -35.0233 -6.48815
LeftShoulder1  -0.892849 5.76345 -33.3193
LeftArm  -10.7141 2.75373 -41.728
LeftForeArm  40.9676 -0.345967 -4.77168
LeftHand  -0.055446 7.2603 -0.775121
RightShoulder  -0.661469 -5.43337 27.5949
RightArm  24.6315 -7.52648 46.1755
RightForeArm  11.6648 23.868 4.49921
RightHand  0.0372829 3.77134 0.208471
LeftUpLeg  7.30969 6.80019 -4.84516
LeftLeg  12.3459 11.7398 1.17351
LeftFoot  -16.2188 0.289066 4.50536
LeftToes  1.648e-009 -9.21574e-011 2.55256e-011
745
root  -74.8023 39.5396 -36.5761 2.75888 68.9198 7.42249
RightUpLeg  -17.1414 -12.2719 2.60379
RightLeg  15.4559 -2.8628 -0.840726
RightFoot  -12.0423 -0.0481893 5.42867
RightToes  -8.14909e-010 0 -3.6325e-017
Spine  9.11515 -1.11852 -6.75536
Spine1  5.11228 -2.51593 3.41194
HEad  -6.23108 -36.2658 -5.99322
LeftShoulder1  -0.772999 5.48847 -32.7936
LeftArm  -11.0383 2.86971 -42.851
LeftForeArm  41.112 -1.72938 -4.72607
LeftHand  -0.0292001 6.53335 0.637523
RightShoulder  -0.780998 -5.77117 27.8174
RightArm  25.0633 -8.20664 45.9085
RightForeArm  11.1269 23.1393 4.39969
RightHand  -0.0243817 3.59149 -0.562338
LeftUpLeg  9.72097 6.5308 -5.78543
LeftLeg  11.4925 11.4654 1.05812
LeftFoot  -17.3795 0.35313 4.70498
LeftToes  1.648e-009 -9.21574e-011 2.55256e-011
746
root  -73.9082 39.3297 -36.633 5.43085 70.394 9.70837
RightUpLeg  -18.3876 -12.3818 3.23685
RightLeg  11.3103 -6.91788 0.0604385
RightFoot  -10.6286 -0.110229 5.99859
RightToes  -8.14909e-010 0 -3.6325e-017
Spine  8.58078 -1.3962 -7.7423
Spine1  5.24336 -2.93169 4.02203
HEad  -6.55339 -37.1874 -5.83084
LeftShoulder1  -0.805906 5.57215 -32.8003
LeftArm  -10.8546 1.20379 -43.5562
LeftForeArm  40.4703 -0.590456 -4.73141
LeftHand  -0.0160925 6.07981 2.33794
RightShoulder  -0.84131 -5.92037 28.2165
RightArm  24.3408 -9.12863 45.3557
RightForeArm  11.3792 22.2035 4.38582
RightHand  -0.0695024 3.61714 -1.16213
LeftUpLeg  10.5715 6.27078 -6.84209
LeftLeg  11.4562 10.6364 0.914881
LeftFoot  -18.1815 0.449739 5.68919
LeftToes  1.648e-009 -9.21574e-011 2.55256e-011
747
root  -72.8864 39.1077 -36.7146 7.41043 72.1029 12.1653
RightUpLeg  -18.2461 -10.8597 2.29398
RightLeg  8.06234 -12.6213 1.72206
RightFoot  -7.80409 -0.278598 7.1653
RightToes  -8.14909e-010 0 -3.6325e-017
Spine  9.06198 -1.58112 -7.97987
Spine1  4.74973 -3.22333 4.43567
HEad  -6.17713 -38.5853 -6.03153
LeftShoulder1  -0.760227 5.45882 -32.72
LeftArm  -11.2355 0.857054 -44.5102
LeftForeArm  40.5367 -1.12398 -4.56653
LeftHand  -0.0148869 5.84699 3.14683
RightShoulder  -0.871 -6.00255 28.2732
RightArm  22.8329 -10.4549 44.7397
RightForeArm  11.2677 20.2792 4.5516
RightHand  -0.099885 2.93066 -1.61882
LeftUpLeg  12.8384 6.16584 -7.62722
LeftLeg  10.9577 9.23003 0.613693
LeftFoot  -18.8718 0.5629 6.83316
LeftToes  1.648e-009 -9.21574e-011 2.55256e-011
748
root  -71.7336 38.8354 -36.7463 9.66318 74.0586 14.5287
RightUpLeg  -17.8952 -9.74616 1.32402
RightLeg  5.32173 -17.0571 3.60097
RightFoot  -4.9438 -0.520847 8.776
RightToes  -8.14909e-010 0 -3.6325e-017
Spine  8.65073 -1.89788 -7.90177
Spine1  4.6541 -3.58923 4.74915
HEad  -5.69334 -40.0794 -6.14708
LeftShoulder1  -0.683159 5.27637 -32.388
LeftArm  -11.7638 1.71114 -45.7271
LeftForeArm  41.6492 -3.63416 -4.53973
LeftHand  -0.0216278 5.56951 2.54946
RightShoulder  -0.858409 -5.92608 28.8366
RightArm  20.5365 -12.1084 43.1662
RightForeArm  12.1176 18.8112 4.74967
RightHand  -0.0579999 2.69941 -1.01797
LeftUpLeg  14.6685 6.15885 -8.04892
LeftLeg  11.4302 7.4664 0.640899
LeftFoot  -20.3175 0.655472 6.76807
LeftToes  1.648e-009 -9.21574e-011 2.55256e-011
749
root  -70.485 38.5096 -36.7567 12.7437 75.613 17.4912
RightUpLeg  -17.9939 -11.1028 1.15175
RightLeg  4.95761 -18.0579 4.38603
RightFoot  -5.07404 -0.629011 10.7323
RightToes  -8.14909e-010 0 -3.6325e-017
Spine  7.07347 -2.11285 -7.87345
Spine1  5.80917 -3.86102 5.09826
HEad  -5.77554 -41.4589 -5.83183
LeftShoulder1  -0.652535 5.1999 -32.3212
LeftArm  -9.07684 0.405267 -46.4471
LeftForeArm  39.8637 -3.5376 -5.91206
LeftHand  0.0273901 7.2235 3.9088
RightShoulder  -0.94552 -6.13493 29.3625
RightArm  18.1971 -12.2367 42.0574
RightForeArm  14.541 16.2752 5.18217
RightHand  -0.0203201 1.03526 -0.470282
LeftUpLeg  16.2239 6.27103 -8.44103
LeftLeg  12.2904 5.98131 0.560017
LeftFoot  -21.7203 0.7225 6.55069
LeftToes  1.648e-009 -9.21574e-011 2.55256e-011
750
root  -69.124 38.2507 -36.7598 12.8313 77.3343 17.4427
RightUpLeg  -18.0971 -13.4737 2.26994
RightLeg  6.80753 -17.0248 3.79922
RightFoot  -4.41872 -0.594781 9.27891
RightToes  -8.14909e-010 0 -3.6325e-017
Spine  6.16169 -2.46246 -6.55182
Spine1  5.86411 -4.20746 5.4232
HEad  -5.61812 -41.8633 -4.55551
LeftShoulder1  -0.6561 5.20374 -32.4429
LeftArm  -2.69354 2.17846 -45.2064
LeftForeArm  33.156 -8.38561 -9.20625
LeftHand  0.0625778 8.18238 4.2011
RightShoulder  -1.0062 -6.27563 29.7513
RightArm  16.2444 -12.9325 40.4325
RightForeArm  16.1201 13.7742 5.62031
RightHand  -0.0707946 0.695486 -1.44562
LeftUpLeg  17.7436 6.92998 -7.50875
LeftLeg  13.77 3.61105 0.452283
LeftFoot  -22.7896 0.614532 4.73928
LeftToes  1.648e-009 -9.21574e-011 2.55256e-011
751
root  -67.7746 38.2355 -36.7584 8.70605 78.3542 13.0563
RightUpLeg  -19.5809 -16.2841 4.72199
RightLeg  11.432 -13.8719 2.17563
RightFoot  -1.74589 0.408998 -3.96239
RightToes  -8.14909e-010 0 -3.6325e-017
Spine  4.82147 -2.48921 -4.33818
Spine1  7.21582 -4.44969 6.35133
HEad  -5.93954 -43.0093 -4.67077
LeftShoulder1  -0.661445 5.21945 -32.3918
LeftArm  -2.10638 2.50537 -46.4493
LeftForeArm  32.9353 -9.02894 -8.94719
LeftHand  0.0438382 7.73315 4.00405
RightShoulder  -0.968793 -6.16784 29.7877
RightArm  14.3022 -13.0946 39.0676
RightForeArm  17.5088 11.3695 5.83968
RightHand  -0.0597162 -0.0253922 -1.41392
LeftUpLeg  19.5048 7.54075 -5.83981
LeftLeg  14.5062 1.17848 0.275169
LeftFoot  -22.0737 0.436892 3.25027
LeftToes  1.648e-009 -9.21574e-011 2.55256e-011
752
root  -66.3764 38.1303 -36.7823 0.0455627 77.5496 3.74573
RightUpLeg  -22.6368 -18.8988 8.78048
RightLeg  17.827 -10.568 -0.966505
RightFoot  2.07124 1.76583 -15.1853
RightToes  -8.14909e-010 0 -3.6325e-017
Spine  4.24195 -2.1397 0.200469
Spine1  6.39099 -3.62749 5.15245
HEad  -4.88778 -43.818 -5.68141
LeftShoulder1  -0.520979 4.86386 -32.1664
LeftArm  -0.534004 4.18185 -47.0085
LeftForeArm  31.5294 -10.3791 -8.87983
LeftHand  0.0538035 8.31109 3.77435
RightShoulder  -1.121 -6.54653 30.3197
RightArm  12.3066 -13.2528 37.7355
RightForeArm  19.0238 9.63682 5.50628
RightHand  -0.0113597 2.66175 -0.33472
LeftUpLeg  19.4256 9.66092 -3.1088
LeftLeg  18.5045 -1.69367 -0.328909
LeftFoot  -21.3745 0.115899 -0.110393
LeftToes  1.648e-009 -9.21574e-011 2.55256e-011
753
root  -64.9382 37.9724 -36.7821 -6.93863 75.6049 -2.95081
RightUpLeg  -23.2649 -19.9707 11.3207
RightLeg  23.6399 -6.69494 -3.75552
RightFoot  -0.904919 1.25436 -13.6826
RightToes  -8.14909e-010 0 -3.6325e-017
Spine  4.33066 -2.03153 3.91301
Spine1  6.05971 -2.99705 4.04718
HEad  -4.50876 -43.2674 -6.13626
LeftShoulder1  -0.507149 4.82957 -32.1167
LeftArm  -0.0926104 6.16999 -47.329
LeftForeArm  30.2946 -11.5269 -8.45818
LeftHand  0.0488006 7.36769 4.78015
RightShoulder  -1.13774 -6.58536 30.3968
RightArm  10.4319 -12.0735 37.208
RightForeArm  18.619 7.6295 5.02648
RightHand  0.0191479 2.38485 0.084331
LeftUpLeg  18.7831 12.3802 -0.0200855
LeftLeg  25.8217 -4.66011 -2.18467
LeftFoot  -18.8068 -0.165283 -4.47012
LeftToes  1.648e-009 -9.21574e-011 2.55256e-011
